REM DIRINDEX 1\2\4\18,1\2\4\19,1\2\5\20,1\2\5\21,1\2\6\22,1\2\6\23,1\2\7\24,1\2\8\25,1\2\9\26,1\2\10\27,1\2\10\28,1\3\11\29,1\3\11\30,1\3\11\31,1\3\11\32,1\3\12\33,1\3\12\34,1\3\12\35,1\3\12\36,1\3\13\37,1\3\13\38,1\3\13\39,1\3\13\40,1\3\14\41,1\3\14\42,1\3\15\43,1\3\15\44,1\3\16\45,1\3\16\46,1\3\17\47,1\3\17\48,1\3\17\49,1\3\17\50
REM DIRNAME folder01,folder02,folder03,folder04,folder05,folder06,folder07,folder08,folder09,folder10,folder11,folder12,folder13,folder14,folder15,folder16,folder17,folder18,folder19,folder20,folder21,folder22,folder23,folder24,folder25,folder26,folder27,folder28,folder29,folder30,folder31,folder32,folder33,folder34,folder35,folder36,folder37,folder38,folder39,folder40,folder41,folder42,folder43,folder44,folder45,folder46,folder47,folder48,folder49,folder50
TITLE ""
FILE "08.mp3" MP3
  TRACK 01 AUDIO
    TITLE "0:"
    INDEX 01 00:00:00
  TRACK 02 AUDIO
    TITLE "29:cjc135_4860"
    INDEX 01 00:00:15
  TRACK 03 AUDIO
    TITLE "0:"
    INDEX 01 00:01:21
  TRACK 04 AUDIO
    TITLE "30:cjc135_4861"
    INDEX 01 00:01:71
  TRACK 05 AUDIO
    TITLE "0:"
    INDEX 01 00:03:74
  TRACK 06 AUDIO
    TITLE "31:cjc135_4862"
    INDEX 01 00:04:27
  TRACK 07 AUDIO
    TITLE "0:"
    INDEX 01 00:05:73
  TRACK 08 AUDIO
    TITLE "32:cjc135_4863"
    INDEX 01 00:06:26
  TRACK 09 AUDIO
    TITLE "0:"
    INDEX 01 00:07:74
  TRACK 10 AUDIO
    TITLE "29:cjc135_4864"
    INDEX 01 00:08:72
  TRACK 11 AUDIO
    TITLE "0:"
    INDEX 01 00:10:18
  TRACK 12 AUDIO
    TITLE "30:cjc135_4865"
    INDEX 01 00:10:66
  TRACK 13 AUDIO
    TITLE "0:"
    INDEX 01 00:13:49
  TRACK 14 AUDIO
    TITLE "31:cjc135_4866"
    INDEX 01 00:14:02
  TRACK 15 AUDIO
    TITLE "0:"
    INDEX 01 00:16:22
  TRACK 16 AUDIO
    TITLE "32:cjc135_4867"
    INDEX 01 00:16:48
  TRACK 17 AUDIO
    TITLE "0:"
    INDEX 01 00:18:68
  TRACK 18 AUDIO
    TITLE "29:cjc135_4868"
    INDEX 01 00:19:67
  TRACK 19 AUDIO
    TITLE "0:"
    INDEX 01 00:21:15
  TRACK 20 AUDIO
    TITLE "30:cjc135_4869"
    INDEX 01 00:21:64
  TRACK 21 AUDIO
    TITLE "0:"
    INDEX 01 00:23:59
  TRACK 22 AUDIO
    TITLE "31:cjc135_4870"
    INDEX 01 00:24:08
  TRACK 23 AUDIO
    TITLE "0:"
    INDEX 01 00:25:68
  TRACK 24 AUDIO
    TITLE "32:cjc135_4871"
    INDEX 01 00:26:22
  TRACK 25 AUDIO
    TITLE "0:"
    INDEX 01 00:28:12
  TRACK 26 AUDIO
    TITLE "29:cjc135_4872"
    INDEX 01 00:29:13
  TRACK 27 AUDIO
    TITLE "0:"
    INDEX 01 00:30:34
  TRACK 28 AUDIO
    TITLE "30:cjc135_4873"
    INDEX 01 00:31:10
  TRACK 29 AUDIO
    TITLE "0:"
    INDEX 01 00:33:01
  TRACK 30 AUDIO
    TITLE "31:cjc135_4874"
    INDEX 01 00:33:26
  TRACK 31 AUDIO
    TITLE "0:"
    INDEX 01 00:35:04
  TRACK 32 AUDIO
    TITLE "32:cjc135_4875"
    INDEX 01 00:35:29
  TRACK 33 AUDIO
    TITLE "0:"
    INDEX 01 00:37:05
  TRACK 34 AUDIO
    TITLE "29:cjc135_4876"
    INDEX 01 00:38:08
  TRACK 35 AUDIO
    TITLE "0:"
    INDEX 01 00:39:31
  TRACK 36 AUDIO
    TITLE "30:cjc135_4877"
    INDEX 01 00:40:07
  TRACK 37 AUDIO
    TITLE "0:"
    INDEX 01 00:42:14
  TRACK 38 AUDIO
    TITLE "31:cjc135_4878"
    INDEX 01 00:42:39
  TRACK 39 AUDIO
    TITLE "0:"
    INDEX 01 00:44:28
  TRACK 40 AUDIO
    TITLE "32:cjc135_4879"
    INDEX 01 00:44:56
  TRACK 41 AUDIO
    TITLE "0:"
    INDEX 01 00:46:43
  TRACK 42 AUDIO
    TITLE "29:cjc135_4880"
    INDEX 01 00:47:44
  TRACK 43 AUDIO
    TITLE "0:"
    INDEX 01 00:48:61
  TRACK 44 AUDIO
    TITLE "30:cjc135_4881"
    INDEX 01 00:49:37
  TRACK 45 AUDIO
    TITLE "0:"
    INDEX 01 00:51:05
  TRACK 46 AUDIO
    TITLE "31:cjc135_4882"
    INDEX 01 00:51:30
  TRACK 47 AUDIO
    TITLE "0:"
    INDEX 01 00:53:25
  TRACK 48 AUDIO
    TITLE "32:cjc135_4883"
    INDEX 01 00:53:53
  TRACK 49 AUDIO
    TITLE "0:"
    INDEX 01 00:55:50
  TRACK 50 AUDIO
    TITLE "29:cjc135_4884"
    INDEX 01 00:56:49
  TRACK 51 AUDIO
    TITLE "0:"
    INDEX 01 00:57:70
  TRACK 52 AUDIO
    TITLE "30:cjc135_4885"
    INDEX 01 00:58:48
  TRACK 53 AUDIO
    TITLE "0:"
    INDEX 01 01:00:68
  TRACK 54 AUDIO
    TITLE "31:cjc135_4886"
    INDEX 01 01:01:19
  TRACK 55 AUDIO
    TITLE "0:"
    INDEX 01 01:03:31
  TRACK 56 AUDIO
    TITLE "32:cjc135_4887"
    INDEX 01 01:03:57
  TRACK 57 AUDIO
    TITLE "0:"
    INDEX 01 01:05:71
  TRACK 58 AUDIO
    TITLE "29:cjc135_4888"
    INDEX 01 01:06:73
  TRACK 59 AUDIO
    TITLE "0:"
    INDEX 01 01:08:05
  TRACK 60 AUDIO
    TITLE "30:cjc135_4889"
    INDEX 01 01:08:54
  TRACK 61 AUDIO
    TITLE "0:"
    INDEX 01 01:11:43
  TRACK 62 AUDIO
    TITLE "31:cjc135_4890"
    INDEX 01 01:11:72
  TRACK 63 AUDIO
    TITLE "0:"
    INDEX 01 01:14:41
  TRACK 64 AUDIO
    TITLE "32:cjc135_4891"
    INDEX 01 01:14:65
  TRACK 65 AUDIO
    TITLE "0:"
    INDEX 01 01:17:33
  TRACK 66 AUDIO
    TITLE "29:cjc135_4892"
    INDEX 01 01:18:33
  TRACK 67 AUDIO
    TITLE "0:"
    INDEX 01 01:19:50
  TRACK 68 AUDIO
    TITLE "30:cjc135_4893"
    INDEX 01 01:20:24
  TRACK 69 AUDIO
    TITLE "0:"
    INDEX 01 01:23:18
  TRACK 70 AUDIO
    TITLE "31:cjc135_4894"
    INDEX 01 01:23:42
  TRACK 71 AUDIO
    TITLE "0:"
    INDEX 01 01:25:74
  TRACK 72 AUDIO
    TITLE "32:cjc135_4895"
    INDEX 01 01:26:25
  TRACK 73 AUDIO
    TITLE "0:"
    INDEX 01 01:28:59
  TRACK 74 AUDIO
    TITLE "29:cjc135_4896"
    INDEX 01 01:29:56
  TRACK 75 AUDIO
    TITLE "0:"
    INDEX 01 01:30:66
  TRACK 76 AUDIO
    TITLE "30:cjc135_4897"
    INDEX 01 01:31:39
  TRACK 77 AUDIO
    TITLE "0:"
    INDEX 01 01:33:64
  TRACK 78 AUDIO
    TITLE "31:cjc135_4898"
    INDEX 01 01:34:14
  TRACK 79 AUDIO
    TITLE "0:"
    INDEX 01 01:36:25
  TRACK 80 AUDIO
    TITLE "32:cjc135_4899"
    INDEX 01 01:36:50
  TRACK 81 AUDIO
    TITLE "0:"
    INDEX 01 01:38:59
  TRACK 82 AUDIO
    TITLE "29:cjc135_4900"
    INDEX 01 01:39:61
  TRACK 83 AUDIO
    TITLE "0:"
    INDEX 01 01:41:10
  TRACK 84 AUDIO
    TITLE "30:cjc135_4901"
    INDEX 01 01:41:59
  TRACK 85 AUDIO
    TITLE "0:"
    INDEX 01 01:43:35
  TRACK 86 AUDIO
    TITLE "31:cjc135_4902"
    INDEX 01 01:43:62
  TRACK 87 AUDIO
    TITLE "0:"
    INDEX 01 01:45:53
  TRACK 88 AUDIO
    TITLE "32:cjc135_4903"
    INDEX 01 01:46:02
  TRACK 89 AUDIO
    TITLE "0:"
    INDEX 01 01:47:68
  TRACK 90 AUDIO
    TITLE "29:cjc135_4904"
    INDEX 01 01:48:67
  TRACK 91 AUDIO
    TITLE "0:"
    INDEX 01 01:50:07
  TRACK 92 AUDIO
    TITLE "30:cjc135_4905"
    INDEX 01 01:50:56
  TRACK 93 AUDIO
    TITLE "0:"
    INDEX 01 01:52:73
  TRACK 94 AUDIO
    TITLE "31:cjc135_4906"
    INDEX 01 01:53:25
  TRACK 95 AUDIO
    TITLE "0:"
    INDEX 01 01:55:32
  TRACK 96 AUDIO
    TITLE "32:cjc135_4907"
    INDEX 01 01:55:58
  TRACK 97 AUDIO
    TITLE "0:"
    INDEX 01 01:57:64
  TRACK 98 AUDIO
    TITLE "29:cjc135_4908"
    INDEX 01 01:58:64
  TRACK 99 AUDIO
    TITLE "0:"
    INDEX 01 02:00:25
  TRACK 100 AUDIO
    TITLE "30:cjc135_4909"
    INDEX 01 02:00:74
  TRACK 101 AUDIO
    TITLE "0:"
    INDEX 01 02:02:67
  TRACK 102 AUDIO
    TITLE "31:cjc135_4910"
    INDEX 01 02:03:18
  TRACK 103 AUDIO
    TITLE "0:"
    INDEX 01 02:05:17
  TRACK 104 AUDIO
    TITLE "32:cjc135_4911"
    INDEX 01 02:05:42
  TRACK 105 AUDIO
    TITLE "0:"
    INDEX 01 02:07:41
  TRACK 106 AUDIO
    TITLE "29:cjc135_4912"
    INDEX 01 02:08:43
  TRACK 107 AUDIO
    TITLE "0:"
    INDEX 01 02:09:52
  TRACK 108 AUDIO
    TITLE "30:cjc135_4913"
    INDEX 01 02:10:28
  TRACK 109 AUDIO
    TITLE "0:"
    INDEX 01 02:12:64
  TRACK 110 AUDIO
    TITLE "31:cjc135_4914"
    INDEX 01 02:13:14
  TRACK 111 AUDIO
    TITLE "0:"
    INDEX 01 02:15:62
  TRACK 112 AUDIO
    TITLE "32:cjc135_4915"
    INDEX 01 02:16:15
  TRACK 113 AUDIO
    TITLE "0:"
    INDEX 01 02:18:65
  TRACK 114 AUDIO
    TITLE "29:cjc135_4916"
    INDEX 01 02:19:64
  TRACK 115 AUDIO
    TITLE "0:"
    INDEX 01 02:20:71
  TRACK 116 AUDIO
    TITLE "30:cjc135_4917"
    INDEX 01 02:21:45
  TRACK 117 AUDIO
    TITLE "0:"
    INDEX 01 02:23:62
  TRACK 118 AUDIO
    TITLE "31:cjc135_4918"
    INDEX 01 02:24:12
  TRACK 119 AUDIO
    TITLE "0:"
    INDEX 01 02:26:48
  TRACK 120 AUDIO
    TITLE "32:cjc135_4919"
    INDEX 01 02:26:72
  TRACK 121 AUDIO
    TITLE "0:"
    INDEX 01 02:29:31
  TRACK 122 AUDIO
    TITLE "29:cjc135_4920"
    INDEX 01 02:30:32
  TRACK 123 AUDIO
    TITLE "0:"
    INDEX 01 02:31:38
  TRACK 124 AUDIO
    TITLE "30:cjc135_4921"
    INDEX 01 02:32:14
  TRACK 125 AUDIO
    TITLE "0:"
    INDEX 01 02:35:14
  TRACK 126 AUDIO
    TITLE "31:cjc135_4922"
    INDEX 01 02:35:38
  TRACK 127 AUDIO
    TITLE "0:"
    INDEX 01 02:37:62
  TRACK 128 AUDIO
    TITLE "32:cjc135_4923"
    INDEX 01 02:38:12
  TRACK 129 AUDIO
    TITLE "0:"
    INDEX 01 02:40:35
  TRACK 130 AUDIO
    TITLE "29:cjc135_4924"
    INDEX 01 02:41:34
  TRACK 131 AUDIO
    TITLE "0:"
    INDEX 01 02:42:42
  TRACK 132 AUDIO
    TITLE "30:cjc135_4925"
    INDEX 01 02:43:17
  TRACK 133 AUDIO
    TITLE "0:"
    INDEX 01 02:45:44
  TRACK 134 AUDIO
    TITLE "31:cjc135_4926"
    INDEX 01 02:45:69
  TRACK 135 AUDIO
    TITLE "0:"
    INDEX 01 02:48:05
  TRACK 136 AUDIO
    TITLE "32:cjc135_4927"
    INDEX 01 02:48:30
  TRACK 137 AUDIO
    TITLE "0:"
    INDEX 01 02:50:41
  TRACK 138 AUDIO
    TITLE "29:cjc135_4928"
    INDEX 01 02:51:40
  TRACK 139 AUDIO
    TITLE "0:"
    INDEX 01 02:52:46
  TRACK 140 AUDIO
    TITLE "30:cjc135_4929"
    INDEX 01 02:53:22
  TRACK 141 AUDIO
    TITLE "0:"
    INDEX 01 02:55:28
  TRACK 142 AUDIO
    TITLE "31:cjc135_4930"
    INDEX 01 02:55:52
  TRACK 143 AUDIO
    TITLE "0:"
    INDEX 01 02:57:53
  TRACK 144 AUDIO
    TITLE "32:cjc135_4931"
    INDEX 01 02:58:05
  TRACK 145 AUDIO
    TITLE "0:"
    INDEX 01 03:00:08
  TRACK 146 AUDIO
    TITLE "29:cjc135_4932"
    INDEX 01 03:01:08
  TRACK 147 AUDIO
    TITLE "0:"
    INDEX 01 03:02:30
  TRACK 148 AUDIO
    TITLE "30:cjc135_4933"
    INDEX 01 03:03:04
  TRACK 149 AUDIO
    TITLE "0:"
    INDEX 01 03:06:22
  TRACK 150 AUDIO
    TITLE "31:cjc135_4934"
    INDEX 01 03:06:50
  TRACK 151 AUDIO
    TITLE "0:"
    INDEX 01 03:09:56
  TRACK 152 AUDIO
    TITLE "32:cjc135_4935"
    INDEX 01 03:10:08
  TRACK 153 AUDIO
    TITLE "0:"
    INDEX 01 03:13:17
  TRACK 154 AUDIO
    TITLE "29:cjc135_4936"
    INDEX 01 03:14:18
  TRACK 155 AUDIO
    TITLE "0:"
    INDEX 01 03:15:53
  TRACK 156 AUDIO
    TITLE "30:cjc135_4937"
    INDEX 01 03:16:27
  TRACK 157 AUDIO
    TITLE "0:"
    INDEX 01 03:19:51
  TRACK 158 AUDIO
    TITLE "31:cjc135_4938"
    INDEX 01 03:19:74
  TRACK 159 AUDIO
    TITLE "0:"
    INDEX 01 03:23:05
  TRACK 160 AUDIO
    TITLE "32:cjc135_4939"
    INDEX 01 03:23:33
  TRACK 161 AUDIO
    TITLE "0:"
    INDEX 01 03:26:41
  TRACK 162 AUDIO
    TITLE "29:cjc135_4940"
    INDEX 01 03:27:40
  TRACK 163 AUDIO
    TITLE "0:"
    INDEX 01 03:28:61
  TRACK 164 AUDIO
    TITLE "30:cjc135_4941"
    INDEX 01 03:29:37
  TRACK 165 AUDIO
    TITLE "0:"
    INDEX 01 03:31:07
  TRACK 166 AUDIO
    TITLE "31:cjc135_4942"
    INDEX 01 03:31:32
  TRACK 167 AUDIO
    TITLE "0:"
    INDEX 01 03:33:37
  TRACK 168 AUDIO
    TITLE "32:cjc135_4943"
    INDEX 01 03:33:62
  TRACK 169 AUDIO
    TITLE "0:"
    INDEX 01 03:35:67
  TRACK 170 AUDIO
    TITLE "29:cjc135_4944"
    INDEX 01 03:36:67
  TRACK 171 AUDIO
    TITLE "0:"
    INDEX 01 03:38:18
  TRACK 172 AUDIO
    TITLE "30:cjc135_4945"
    INDEX 01 03:38:67
  TRACK 173 AUDIO
    TITLE "0:"
    INDEX 01 03:41:11
  TRACK 174 AUDIO
    TITLE "31:cjc135_4946"
    INDEX 01 03:41:36
  TRACK 175 AUDIO
    TITLE "0:"
    INDEX 01 03:43:67
  TRACK 176 AUDIO
    TITLE "32:cjc135_4947"
    INDEX 01 03:44:17
  TRACK 177 AUDIO
    TITLE "0:"
    INDEX 01 03:46:49
  TRACK 178 AUDIO
    TITLE "29:cjc135_4948"
    INDEX 01 03:47:47
  TRACK 179 AUDIO
    TITLE "0:"
    INDEX 01 03:48:68
  TRACK 180 AUDIO
    TITLE "30:cjc135_4949"
    INDEX 01 03:49:42
  TRACK 181 AUDIO
    TITLE "0:"
    INDEX 01 03:51:41
  TRACK 182 AUDIO
    TITLE "31:cjc135_4950"
    INDEX 01 03:51:66
  TRACK 183 AUDIO
    TITLE "0:"
    INDEX 01 03:53:53
  TRACK 184 AUDIO
    TITLE "32:cjc135_4951"
    INDEX 01 03:54:02
  TRACK 185 AUDIO
    TITLE "0:"
    INDEX 01 03:55:62
  TRACK 186 AUDIO
    TITLE "29:cjc135_4952"
    INDEX 01 03:56:61
  TRACK 187 AUDIO
    TITLE "0:"
    INDEX 01 03:57:71
  TRACK 188 AUDIO
    TITLE "30:cjc135_4953"
    INDEX 01 03:58:47
  TRACK 189 AUDIO
    TITLE "0:"
    INDEX 01 04:00:51
  TRACK 190 AUDIO
    TITLE "31:cjc135_4954"
    INDEX 01 04:01:02
  TRACK 191 AUDIO
    TITLE "0:"
    INDEX 01 04:02:56
  TRACK 192 AUDIO
    TITLE "32:cjc135_4955"
    INDEX 01 04:03:05
  TRACK 193 AUDIO
    TITLE "0:"
    INDEX 01 04:04:55
  TRACK 194 AUDIO
    TITLE "29:cjc135_4956"
    INDEX 01 04:05:57
  TRACK 195 AUDIO
    TITLE "0:"
    INDEX 01 04:06:68
  TRACK 196 AUDIO
    TITLE "30:cjc135_4957"
    INDEX 01 04:07:42
  TRACK 197 AUDIO
    TITLE "0:"
    INDEX 01 04:10:28
  TRACK 198 AUDIO
    TITLE "31:cjc135_4958"
    INDEX 01 04:10:54
  TRACK 199 AUDIO
    TITLE "0:"
    INDEX 01 04:13:50
  TRACK 200 AUDIO
    TITLE "32:cjc135_4959"
    INDEX 01 04:14:03
  TRACK 201 AUDIO
    TITLE "0:"
    INDEX 01 04:16:74
  TRACK 202 AUDIO
    TITLE "29:cjc135_4960"
    INDEX 01 04:17:71
  TRACK 203 AUDIO
    TITLE "0:"
    INDEX 01 04:19:08
  TRACK 204 AUDIO
    TITLE "30:cjc135_4961"
    INDEX 01 04:19:57
  TRACK 205 AUDIO
    TITLE "0:"
    INDEX 01 04:22:20
  TRACK 206 AUDIO
    TITLE "31:cjc135_4962"
    INDEX 01 04:22:47
  TRACK 207 AUDIO
    TITLE "0:"
    INDEX 01 04:24:64
  TRACK 208 AUDIO
    TITLE "32:cjc135_4963"
    INDEX 01 04:25:14
  TRACK 209 AUDIO
    TITLE "0:"
    INDEX 01 04:27:31
  TRACK 210 AUDIO
    TITLE "29:cjc135_4964"
    INDEX 01 04:28:32
  TRACK 211 AUDIO
    TITLE "0:"
    INDEX 01 04:29:41
  TRACK 212 AUDIO
    TITLE "30:cjc135_4965"
    INDEX 01 04:30:15
  TRACK 213 AUDIO
    TITLE "0:"
    INDEX 01 04:32:04
  TRACK 214 AUDIO
    TITLE "31:cjc135_4966"
    INDEX 01 04:32:30
  TRACK 215 AUDIO
    TITLE "0:"
    INDEX 01 04:34:48
  TRACK 216 AUDIO
    TITLE "32:cjc135_4967"
    INDEX 01 04:34:72
  TRACK 217 AUDIO
    TITLE "0:"
    INDEX 01 04:37:15
  TRACK 218 AUDIO
    TITLE "29:cjc135_4968"
    INDEX 01 04:38:15
  TRACK 219 AUDIO
    TITLE "0:"
    INDEX 01 04:39:32
  TRACK 220 AUDIO
    TITLE "30:cjc135_4969"
    INDEX 01 04:40:10
  TRACK 221 AUDIO
    TITLE "0:"
    INDEX 01 04:43:20
  TRACK 222 AUDIO
    TITLE "31:cjc135_4970"
    INDEX 01 04:43:47
  TRACK 223 AUDIO
    TITLE "0:"
    INDEX 01 04:45:68
  TRACK 224 AUDIO
    TITLE "32:cjc135_4971"
    INDEX 01 04:46:20
  TRACK 225 AUDIO
    TITLE "0:"
    INDEX 01 04:48:41
  TRACK 226 AUDIO
    TITLE "29:cjc135_4972"
    INDEX 01 04:49:42
  TRACK 227 AUDIO
    TITLE "0:"
    INDEX 01 04:50:65
  TRACK 228 AUDIO
    TITLE "30:cjc135_4973"
    INDEX 01 04:51:39
  TRACK 229 AUDIO
    TITLE "0:"
    INDEX 01 04:54:39
  TRACK 230 AUDIO
    TITLE "31:cjc135_4974"
    INDEX 01 04:54:65
  TRACK 231 AUDIO
    TITLE "0:"
    INDEX 01 04:57:49
  TRACK 232 AUDIO
    TITLE "32:cjc135_4975"
    INDEX 01 04:57:73
  TRACK 233 AUDIO
    TITLE "0:"
    INDEX 01 05:00:56
  TRACK 234 AUDIO
    TITLE "29:cjc135_4976"
    INDEX 01 05:01:55
  TRACK 235 AUDIO
    TITLE "0:"
    INDEX 01 05:02:62
  TRACK 236 AUDIO
    TITLE "30:cjc135_4977"
    INDEX 01 05:03:36
  TRACK 237 AUDIO
    TITLE "0:"
    INDEX 01 05:06:19
  TRACK 238 AUDIO
    TITLE "31:cjc135_4978"
    INDEX 01 05:06:46
  TRACK 239 AUDIO
    TITLE "0:"
    INDEX 01 05:08:71
  TRACK 240 AUDIO
    TITLE "32:cjc135_4979"
    INDEX 01 05:09:25
  TRACK 241 AUDIO
    TITLE "0:"
    INDEX 01 05:11:50
  TRACK 242 AUDIO
    TITLE "29:cjc135_4980"
    INDEX 01 05:12:53
  TRACK 243 AUDIO
    TITLE "0:"
    INDEX 01 05:14:18
  TRACK 244 AUDIO
    TITLE "30:cjc135_4981"
    INDEX 01 05:15:02
  TRACK 245 AUDIO
    TITLE "0:"
    INDEX 01 05:16:74
  TRACK 246 AUDIO
    TITLE "31:cjc135_4982"
    INDEX 01 05:17:23
  TRACK 247 AUDIO
    TITLE "0:"
    INDEX 01 05:19:22
  TRACK 248 AUDIO
    TITLE "32:cjc135_4983"
    INDEX 01 05:19:47
  TRACK 249 AUDIO
    TITLE "0:"
    INDEX 01 05:21:50
  TRACK 250 AUDIO
    TITLE "29:cjc135_4984"
    INDEX 01 05:22:49
  TRACK 251 AUDIO
    TITLE "0:"
    INDEX 01 05:23:74
  TRACK 252 AUDIO
    TITLE "30:cjc135_4985"
    INDEX 01 05:24:48
  TRACK 253 AUDIO
    TITLE "0:"
    INDEX 01 05:27:54
  TRACK 254 AUDIO
    TITLE "31:cjc135_4986"
    INDEX 01 05:28:05
  TRACK 255 AUDIO
    TITLE "0:"
    INDEX 01 05:30:68
  TRACK 256 AUDIO
    TITLE "32:cjc135_4987"
    INDEX 01 05:31:17
  TRACK 257 AUDIO
    TITLE "0:"
    INDEX 01 05:34:06
  TRACK 258 AUDIO
    TITLE "29:cjc135_4988"
    INDEX 01 05:35:05
  TRACK 259 AUDIO
    TITLE "0:"
    INDEX 01 05:36:10
  TRACK 260 AUDIO
    TITLE "30:cjc135_4989"
    INDEX 01 05:36:59
  TRACK 261 AUDIO
    TITLE "0:"
    INDEX 01 05:39:44
  TRACK 262 AUDIO
    TITLE "31:cjc135_4990"
    INDEX 01 05:39:63
  TRACK 263 AUDIO
    TITLE "0:"
    INDEX 01 05:42:05
  TRACK 264 AUDIO
    TITLE "32:cjc135_4991"
    INDEX 01 05:42:25
  TRACK 265 AUDIO
    TITLE "0:"
    INDEX 01 05:44:37
  TRACK 266 AUDIO
    TITLE "29:cjc135_4992"
    INDEX 01 05:45:41
  TRACK 267 AUDIO
    TITLE "0:"
    INDEX 01 05:46:62
  TRACK 268 AUDIO
    TITLE "30:cjc135_4993"
    INDEX 01 05:47:36
  TRACK 269 AUDIO
    TITLE "0:"
    INDEX 01 05:49:11
  TRACK 270 AUDIO
    TITLE "31:cjc135_4994"
    INDEX 01 05:49:34
  TRACK 271 AUDIO
    TITLE "0:"
    INDEX 01 05:51:27
  TRACK 272 AUDIO
    TITLE "32:cjc135_4995"
    INDEX 01 05:51:49
  TRACK 273 AUDIO
    TITLE "0:"
    INDEX 01 05:53:40
  TRACK 274 AUDIO
    TITLE "29:cjc135_4996"
    INDEX 01 05:54:40
  TRACK 275 AUDIO
    TITLE "0:"
    INDEX 01 05:55:43
  TRACK 276 AUDIO
    TITLE "30:cjc135_4997"
    INDEX 01 05:56:19
  TRACK 277 AUDIO
    TITLE "0:"
    INDEX 01 05:59:17
  TRACK 278 AUDIO
    TITLE "31:cjc135_4998"
    INDEX 01 05:59:41
  TRACK 279 AUDIO
    TITLE "0:"
    INDEX 01 06:02:08
  TRACK 280 AUDIO
    TITLE "32:cjc135_4999"
    INDEX 01 06:02:33
  TRACK 281 AUDIO
    TITLE "0:"
    INDEX 01 06:05:02
  TRACK 282 AUDIO
    TITLE "29:cjc135_5000"
    INDEX 01 06:06:02
  TRACK 283 AUDIO
    TITLE "0:"
    INDEX 01 06:07:11
  TRACK 284 AUDIO
    TITLE "30:cjc135_5001"
    INDEX 01 06:07:62
  TRACK 285 AUDIO
    TITLE "0:"
    INDEX 01 06:09:23
  TRACK 286 AUDIO
    TITLE "31:cjc135_5002"
    INDEX 01 06:09:51
  TRACK 287 AUDIO
    TITLE "0:"
    INDEX 01 06:11:32
  TRACK 288 AUDIO
    TITLE "32:cjc135_5003"
    INDEX 01 06:11:58
  TRACK 289 AUDIO
    TITLE "0:"
    INDEX 01 06:13:41
  TRACK 290 AUDIO
    TITLE "29:cjc135_5004"
    INDEX 01 06:14:40
  TRACK 291 AUDIO
    TITLE "0:"
    INDEX 01 06:15:55
  TRACK 292 AUDIO
    TITLE "30:cjc135_5005"
    INDEX 01 06:16:29
  TRACK 293 AUDIO
    TITLE "0:"
    INDEX 01 06:19:04
  TRACK 294 AUDIO
    TITLE "31:cjc135_5006"
    INDEX 01 06:19:32
  TRACK 295 AUDIO
    TITLE "0:"
    INDEX 01 06:21:25
  TRACK 296 AUDIO
    TITLE "32:cjc135_5007"
    INDEX 01 06:21:52
  TRACK 297 AUDIO
    TITLE "0:"
    INDEX 01 06:23:47
  TRACK 298 AUDIO
    TITLE "29:cjc135_5008"
    INDEX 01 06:24:47
  TRACK 299 AUDIO
    TITLE "0:"
    INDEX 01 06:25:62
  TRACK 300 AUDIO
    TITLE "30:cjc135_5009"
    INDEX 01 06:26:38
  TRACK 301 AUDIO
    TITLE "0:"
    INDEX 01 06:30:41
  TRACK 302 AUDIO
    TITLE "31:cjc135_5010"
    INDEX 01 06:30:65
  TRACK 303 AUDIO
    TITLE "0:"
    INDEX 01 06:33:65
  TRACK 304 AUDIO
    TITLE "32:cjc135_5011"
    INDEX 01 06:34:18
  TRACK 305 AUDIO
    TITLE "0:"
    INDEX 01 06:37:20
  TRACK 306 AUDIO
    TITLE "29:cjc135_5012"
    INDEX 01 06:38:19
  TRACK 307 AUDIO
    TITLE "0:"
    INDEX 01 06:39:17
  TRACK 308 AUDIO
    TITLE "30:cjc135_5013"
    INDEX 01 06:39:68
  TRACK 309 AUDIO
    TITLE "0:"
    INDEX 01 06:41:47
  TRACK 310 AUDIO
    TITLE "31:cjc135_5014"
    INDEX 01 06:41:70
  TRACK 311 AUDIO
    TITLE "0:"
    INDEX 01 06:43:67
  TRACK 312 AUDIO
    TITLE "32:cjc135_5015"
    INDEX 01 06:44:18
  TRACK 313 AUDIO
    TITLE "0:"
    INDEX 01 06:46:13
  TRACK 314 AUDIO
    TITLE "29:cjc135_5016"
    INDEX 01 06:47:14
  TRACK 315 AUDIO
    TITLE "0:"
    INDEX 01 06:48:29
  TRACK 316 AUDIO
    TITLE "30:cjc135_5017"
    INDEX 01 06:49:05
  TRACK 317 AUDIO
    TITLE "0:"
    INDEX 01 06:51:43
  TRACK 318 AUDIO
    TITLE "31:cjc135_5018"
    INDEX 01 06:51:67
  TRACK 319 AUDIO
    TITLE "0:"
    INDEX 01 06:54:57
  TRACK 320 AUDIO
    TITLE "32:cjc135_5019"
    INDEX 01 06:55:08
  TRACK 321 AUDIO
    TITLE "0:"
    INDEX 01 06:57:73
  TRACK 322 AUDIO
    TITLE "29:cjc135_5020"
    INDEX 01 06:58:73
  TRACK 323 AUDIO
    TITLE "0:"
    INDEX 01 07:00:05
  TRACK 324 AUDIO
    TITLE "30:cjc135_5021"
    INDEX 01 07:00:56
  TRACK 325 AUDIO
    TITLE "0:"
    INDEX 01 07:02:55
  TRACK 326 AUDIO
    TITLE "31:cjc135_5022"
    INDEX 01 07:03:07
  TRACK 327 AUDIO
    TITLE "0:"
    INDEX 01 07:05:14
  TRACK 328 AUDIO
    TITLE "32:cjc135_5023"
    INDEX 01 07:05:42
  TRACK 329 AUDIO
    TITLE "0:"
    INDEX 01 07:07:52
  TRACK 330 AUDIO
    TITLE "29:cjc135_5024"
    INDEX 01 07:08:52
  TRACK 331 AUDIO
    TITLE "0:"
    INDEX 01 07:09:59
  TRACK 332 AUDIO
    TITLE "30:cjc135_5025"
    INDEX 01 07:10:35
  TRACK 333 AUDIO
    TITLE "0:"
    INDEX 01 07:13:08
  TRACK 334 AUDIO
    TITLE "31:cjc135_5026"
    INDEX 01 07:13:33
  TRACK 335 AUDIO
    TITLE "0:"
    INDEX 01 07:15:71
  TRACK 336 AUDIO
    TITLE "32:cjc135_5027"
    INDEX 01 07:16:20
  TRACK 337 AUDIO
    TITLE "0:"
    INDEX 01 07:18:58
  TRACK 338 AUDIO
    TITLE "29:cjc135_5028"
    INDEX 01 07:19:59
  TRACK 339 AUDIO
    TITLE "0:"
    INDEX 01 07:20:72
  TRACK 340 AUDIO
    TITLE "30:cjc135_5029"
    INDEX 01 07:21:46
  TRACK 341 AUDIO
    TITLE "0:"
    INDEX 01 07:23:61
  TRACK 342 AUDIO
    TITLE "31:cjc135_5030"
    INDEX 01 07:24:19
  TRACK 343 AUDIO
    TITLE "0:"
    INDEX 01 07:26:05
  TRACK 344 AUDIO
    TITLE "32:cjc135_5031"
    INDEX 01 07:26:36
  TRACK 345 AUDIO
    TITLE "0:"
    INDEX 01 07:28:23
  TRACK 346 AUDIO
    TITLE "29:cjc135_5032"
    INDEX 01 07:29:22
  TRACK 347 AUDIO
    TITLE "0:"
    INDEX 01 07:30:45
  TRACK 348 AUDIO
    TITLE "30:cjc135_5033"
    INDEX 01 07:31:17
  TRACK 349 AUDIO
    TITLE "0:"
    INDEX 01 07:34:35
  TRACK 350 AUDIO
    TITLE "31:cjc135_5034"
    INDEX 01 07:34:59
  TRACK 351 AUDIO
    TITLE "0:"
    INDEX 01 07:37:32
  TRACK 352 AUDIO
    TITLE "32:cjc135_5035"
    INDEX 01 07:37:55
  TRACK 353 AUDIO
    TITLE "0:"
    INDEX 01 07:40:26
  TRACK 354 AUDIO
    TITLE "29:cjc135_5036"
    INDEX 01 07:41:24
  TRACK 355 AUDIO
    TITLE "0:"
    INDEX 01 07:42:35
  TRACK 356 AUDIO
    TITLE "30:cjc135_5037"
    INDEX 01 07:43:13
  TRACK 357 AUDIO
    TITLE "0:"
    INDEX 01 07:46:68
  TRACK 358 AUDIO
    TITLE "31:cjc135_5038"
    INDEX 01 07:47:18
  TRACK 359 AUDIO
    TITLE "0:"
    INDEX 01 07:49:70
  TRACK 360 AUDIO
    TITLE "32:cjc135_5039"
    INDEX 01 07:50:25
  TRACK 361 AUDIO
    TITLE "0:"
    INDEX 01 07:53:07
  TRACK 362 AUDIO
    TITLE "29:cjc135_5040"
    INDEX 01 07:54:07
  TRACK 363 AUDIO
    TITLE "0:"
    INDEX 01 07:55:16
  TRACK 364 AUDIO
    TITLE "30:cjc135_5041"
    INDEX 01 07:55:67
  TRACK 365 AUDIO
    TITLE "0:"
    INDEX 01 07:59:20
  TRACK 366 AUDIO
    TITLE "31:cjc135_5042"
    INDEX 01 07:59:47
  TRACK 367 AUDIO
    TITLE "0:"
    INDEX 01 08:01:64
  TRACK 368 AUDIO
    TITLE "32:cjc135_5043"
    INDEX 01 08:02:14
  TRACK 369 AUDIO
    TITLE "0:"
    INDEX 01 08:04:31
  TRACK 370 AUDIO
    TITLE "29:cjc135_5044"
    INDEX 01 08:05:32
  TRACK 371 AUDIO
    TITLE "0:"
    INDEX 01 08:06:41
  TRACK 372 AUDIO
    TITLE "30:cjc135_5045"
    INDEX 01 08:07:17
  TRACK 373 AUDIO
    TITLE "0:"
    INDEX 01 08:09:55
  TRACK 374 AUDIO
    TITLE "31:cjc135_5046"
    INDEX 01 08:10:04
  TRACK 375 AUDIO
    TITLE "0:"
    INDEX 01 08:12:20
  TRACK 376 AUDIO
    TITLE "32:cjc135_5047"
    INDEX 01 08:12:44
  TRACK 377 AUDIO
    TITLE "0:"
    INDEX 01 08:14:60
  TRACK 378 AUDIO
    TITLE "29:cjc135_5048"
    INDEX 01 08:15:60
  TRACK 379 AUDIO
    TITLE "0:"
    INDEX 01 08:16:65
  TRACK 380 AUDIO
    TITLE "30:cjc135_5049"
    INDEX 01 08:17:43
  TRACK 381 AUDIO
    TITLE "0:"
    INDEX 01 08:19:28
  TRACK 382 AUDIO
    TITLE "31:cjc135_5050"
    INDEX 01 08:19:52
  TRACK 383 AUDIO
    TITLE "0:"
    INDEX 01 08:21:19
  TRACK 384 AUDIO
    TITLE "32:cjc135_5051"
    INDEX 01 08:21:45
  TRACK 385 AUDIO
    TITLE "0:"
    INDEX 01 08:23:12
  TRACK 386 AUDIO
    TITLE "29:cjc135_5052"
    INDEX 01 08:24:12
  TRACK 387 AUDIO
    TITLE "0:"
    INDEX 01 08:25:29
  TRACK 388 AUDIO
    TITLE "30:cjc135_5053"
    INDEX 01 08:26:05
  TRACK 389 AUDIO
    TITLE "0:"
    INDEX 01 08:28:27
  TRACK 390 AUDIO
    TITLE "31:cjc135_5054"
    INDEX 01 08:28:53
  TRACK 391 AUDIO
    TITLE "0:"
    INDEX 01 08:31:27
  TRACK 392 AUDIO
    TITLE "32:cjc135_5055"
    INDEX 01 08:31:53
  TRACK 393 AUDIO
    TITLE "0:"
    INDEX 01 08:34:26
  TRACK 394 AUDIO
    TITLE "29:cjc135_5056"
    INDEX 01 08:35:27
  TRACK 395 AUDIO
    TITLE "0:"
    INDEX 01 08:36:48
  TRACK 396 AUDIO
    TITLE "30:cjc135_5057"
    INDEX 01 08:37:20
  TRACK 397 AUDIO
    TITLE "0:"
    INDEX 01 08:39:70
  TRACK 398 AUDIO
    TITLE "31:cjc135_5058"
    INDEX 01 08:40:23
  TRACK 399 AUDIO
    TITLE "0:"
    INDEX 01 08:42:72
  TRACK 400 AUDIO
    TITLE "32:cjc135_5059"
    INDEX 01 08:43:23
  TRACK 401 AUDIO
    TITLE "0:"
    INDEX 01 08:45:71
  TRACK 402 AUDIO
    TITLE "29:cjc135_5060"
    INDEX 01 08:46:72
  TRACK 403 AUDIO
    TITLE "0:"
    INDEX 01 08:48:20
  TRACK 404 AUDIO
    TITLE "30:cjc135_5061"
    INDEX 01 08:48:69
  TRACK 405 AUDIO
    TITLE "0:"
    INDEX 01 08:51:50
  TRACK 406 AUDIO
    TITLE "31:cjc135_5062"
    INDEX 01 08:52:08
  TRACK 407 AUDIO
    TITLE "0:"
    INDEX 01 08:54:32
  TRACK 408 AUDIO
    TITLE "32:cjc135_5063"
    INDEX 01 08:54:66
  TRACK 409 AUDIO
    TITLE "0:"
    INDEX 01 08:57:13
  TRACK 410 AUDIO
    TITLE "29:cjc135_5064"
    INDEX 01 08:58:13
  TRACK 411 AUDIO
    TITLE "0:"
    INDEX 01 08:59:14
  TRACK 412 AUDIO
    TITLE "30:cjc135_5065"
    INDEX 01 08:59:65
  TRACK 413 AUDIO
    TITLE "0:"
    INDEX 01 09:02:28
  TRACK 414 AUDIO
    TITLE "31:cjc135_5066"
    INDEX 01 09:02:57
  TRACK 415 AUDIO
    TITLE "0:"
    INDEX 01 09:05:17
  TRACK 416 AUDIO
    TITLE "32:cjc135_5067"
    INDEX 01 09:05:42
  TRACK 417 AUDIO
    TITLE "0:"
    INDEX 01 09:08:01
  TRACK 418 AUDIO
    TITLE "29:cjc135_5068"
    INDEX 01 09:09:05
  TRACK 419 AUDIO
    TITLE "0:"
    INDEX 01 09:10:26
  TRACK 420 AUDIO
    TITLE "30:cjc135_5069"
    INDEX 01 09:11:02
  TRACK 421 AUDIO
    TITLE "0:"
    INDEX 01 09:14:14
  TRACK 422 AUDIO
    TITLE "31:cjc135_5070"
    INDEX 01 09:14:39
  TRACK 423 AUDIO
    TITLE "0:"
    INDEX 01 09:17:41
  TRACK 424 AUDIO
    TITLE "32:cjc135_5071"
    INDEX 01 09:17:65
  TRACK 425 AUDIO
    TITLE "0:"
    INDEX 01 09:20:65
  TRACK 426 AUDIO
    TITLE "29:cjc135_5072"
    INDEX 01 09:21:63
  TRACK 427 AUDIO
    TITLE "0:"
    INDEX 01 09:23:18
  TRACK 428 AUDIO
    TITLE "30:cjc135_5073"
    INDEX 01 09:23:67
  TRACK 429 AUDIO
    TITLE "0:"
    INDEX 01 09:25:53
  TRACK 430 AUDIO
    TITLE "31:cjc135_5074"
    INDEX 01 09:26:03
  TRACK 431 AUDIO
    TITLE "0:"
    INDEX 01 09:28:27
  TRACK 432 AUDIO
    TITLE "32:cjc135_5075"
    INDEX 01 09:28:51
  TRACK 433 AUDIO
    TITLE "0:"
    INDEX 01 09:30:73
  TRACK 434 AUDIO
    TITLE "29:cjc135_5076"
    INDEX 01 09:31:71
  TRACK 435 AUDIO
    TITLE "0:"
    INDEX 01 09:33:05
  TRACK 436 AUDIO
    TITLE "30:cjc135_5077"
    INDEX 01 09:33:54
  TRACK 437 AUDIO
    TITLE "0:"
    INDEX 01 09:35:61
  TRACK 438 AUDIO
    TITLE "31:cjc135_5078"
    INDEX 01 09:36:23
  TRACK 439 AUDIO
    TITLE "0:"
    INDEX 01 09:38:22
  TRACK 440 AUDIO
    TITLE "32:cjc135_5079"
    INDEX 01 09:38:55
  TRACK 441 AUDIO
    TITLE "0:"
    INDEX 01 09:40:56
  TRACK 442 AUDIO
    TITLE "29:cjc135_5080"
    INDEX 01 09:41:57
  TRACK 443 AUDIO
    TITLE "0:"
    INDEX 01 09:42:55
  TRACK 444 AUDIO
    TITLE "30:cjc135_5081"
    INDEX 01 09:43:33
  TRACK 445 AUDIO
    TITLE "0:"
    INDEX 01 09:45:40
  TRACK 446 AUDIO
    TITLE "31:cjc135_5082"
    INDEX 01 09:45:65
  TRACK 447 AUDIO
    TITLE "0:"
    INDEX 01 09:47:74
  TRACK 448 AUDIO
    TITLE "32:cjc135_5083"
    INDEX 01 09:48:24
  TRACK 449 AUDIO
    TITLE "0:"
    INDEX 01 09:50:35
  TRACK 450 AUDIO
    TITLE "29:cjc135_5084"
    INDEX 01 09:51:34
  TRACK 451 AUDIO
    TITLE "0:"
    INDEX 01 09:52:44
  TRACK 452 AUDIO
    TITLE "30:cjc135_5085"
    INDEX 01 09:53:18
  TRACK 453 AUDIO
    TITLE "0:"
    INDEX 01 09:54:52
  TRACK 454 AUDIO
    TITLE "31:cjc135_5086"
    INDEX 01 09:55:03
  TRACK 455 AUDIO
    TITLE "0:"
    INDEX 01 09:56:53
  TRACK 456 AUDIO
    TITLE "32:cjc135_5087"
    INDEX 01 09:57:06
  TRACK 457 AUDIO
    TITLE "0:"
    INDEX 01 09:58:56
  TRACK 458 AUDIO
    TITLE "29:cjc135_5088"
    INDEX 01 09:59:57
  TRACK 459 AUDIO
    TITLE "0:"
    INDEX 01 10:00:74
  TRACK 460 AUDIO
    TITLE "30:cjc135_5089"
    INDEX 01 10:01:50
  TRACK 461 AUDIO
    TITLE "0:"
    INDEX 01 10:04:35
  TRACK 462 AUDIO
    TITLE "31:cjc135_5090"
    INDEX 01 10:04:62
  TRACK 463 AUDIO
    TITLE "0:"
    INDEX 01 10:07:16
  TRACK 464 AUDIO
    TITLE "32:cjc135_5091"
    INDEX 01 10:07:41
  TRACK 465 AUDIO
    TITLE "0:"
    INDEX 01 10:09:73
  TRACK 466 AUDIO
    TITLE "29:cjc135_5092"
    INDEX 01 10:10:71
  TRACK 467 AUDIO
    TITLE "0:"
    INDEX 01 10:12:13
  TRACK 468 AUDIO
    TITLE "30:cjc135_5093"
    INDEX 01 10:12:64
  TRACK 469 AUDIO
    TITLE "0:"
    INDEX 01 10:15:17
  TRACK 470 AUDIO
    TITLE "31:cjc135_5094"
    INDEX 01 10:15:45
  TRACK 471 AUDIO
    TITLE "0:"
    INDEX 01 10:17:55
  TRACK 472 AUDIO
    TITLE "32:cjc135_5095"
    INDEX 01 10:18:16
  TRACK 473 AUDIO
    TITLE "0:"
    INDEX 01 10:20:34
  TRACK 474 AUDIO
    TITLE "29:cjc135_5096"
    INDEX 01 10:21:35
  TRACK 475 AUDIO
    TITLE "0:"
    INDEX 01 10:22:31
  TRACK 476 AUDIO
    TITLE "30:cjc135_5097"
    INDEX 01 10:23:05
  TRACK 477 AUDIO
    TITLE "0:"
    INDEX 01 10:24:38
  TRACK 478 AUDIO
    TITLE "31:cjc135_5098"
    INDEX 01 10:24:65
  TRACK 479 AUDIO
    TITLE "0:"
    INDEX 01 10:26:29
  TRACK 480 AUDIO
    TITLE "32:cjc135_5099"
    INDEX 01 10:26:54
  TRACK 481 AUDIO
    TITLE "0:"
    INDEX 01 10:28:20
  TRACK 482 AUDIO
    TITLE "29:cjc135_5100"
    INDEX 01 10:29:15
  TRACK 483 AUDIO
    TITLE "0:"
    INDEX 01 10:30:29
  TRACK 484 AUDIO
    TITLE "30:cjc135_5101"
    INDEX 01 10:31:03
  TRACK 485 AUDIO
    TITLE "0:"
    INDEX 01 10:33:45
  TRACK 486 AUDIO
    TITLE "31:cjc135_5102"
    INDEX 01 10:33:70
  TRACK 487 AUDIO
    TITLE "0:"
    INDEX 01 10:36:19
  TRACK 488 AUDIO
    TITLE "32:cjc135_5103"
    INDEX 01 10:36:45
  TRACK 489 AUDIO
    TITLE "0:"
    INDEX 01 10:38:69
  TRACK 490 AUDIO
    TITLE "29:cjc135_5104"
    INDEX 01 10:39:71
  TRACK 491 AUDIO
    TITLE "0:"
    INDEX 01 10:41:30
  TRACK 492 AUDIO
    TITLE "30:cjc135_5105"
    INDEX 01 10:42:04
  TRACK 493 AUDIO
    TITLE "0:"
    INDEX 01 10:43:59
  TRACK 494 AUDIO
    TITLE "31:cjc135_5106"
    INDEX 01 10:44:07
  TRACK 495 AUDIO
    TITLE "0:"
    INDEX 01 10:46:22
  TRACK 496 AUDIO
    TITLE "32:cjc135_5107"
    INDEX 01 10:46:47
  TRACK 497 AUDIO
    TITLE "0:"
    INDEX 01 10:48:62
  TRACK 498 AUDIO
    TITLE "29:cjc135_5108"
    INDEX 01 10:49:63
  TRACK 499 AUDIO
    TITLE "0:"
    INDEX 01 10:51:05
  TRACK 500 AUDIO
    TITLE "30:cjc135_5109"
    INDEX 01 10:51:54
  TRACK 501 AUDIO
    TITLE "0:"
    INDEX 01 10:55:01
  TRACK 502 AUDIO
    TITLE "31:cjc135_5110"
    INDEX 01 10:55:27
  TRACK 503 AUDIO
    TITLE "0:"
    INDEX 01 10:57:53
  TRACK 504 AUDIO
    TITLE "32:cjc135_5111"
    INDEX 01 10:58:05
  TRACK 505 AUDIO
    TITLE "0:"
    INDEX 01 11:00:28
  TRACK 506 AUDIO
    TITLE "29:cjc135_5112"
    INDEX 01 11:01:33
  TRACK 507 AUDIO
    TITLE "0:"
    INDEX 01 11:02:36
  TRACK 508 AUDIO
    TITLE "30:cjc135_5113"
    INDEX 01 11:03:10
  TRACK 509 AUDIO
    TITLE "0:"
    INDEX 01 11:05:09
  TRACK 510 AUDIO
    TITLE "31:cjc135_5114"
    INDEX 01 11:05:33
  TRACK 511 AUDIO
    TITLE "0:"
    INDEX 01 11:07:28
  TRACK 512 AUDIO
    TITLE "32:cjc135_5115"
    INDEX 01 11:07:55
  TRACK 513 AUDIO
    TITLE "0:"
    INDEX 01 11:09:50
  TRACK 514 AUDIO
    TITLE "29:cjc135_5116"
    INDEX 01 11:10:52
  TRACK 515 AUDIO
    TITLE "0:"
    INDEX 01 11:11:65
  TRACK 516 AUDIO
    TITLE "30:cjc135_5117"
    INDEX 01 11:12:43
  TRACK 517 AUDIO
    TITLE "0:"
    INDEX 01 11:14:67
  TRACK 518 AUDIO
    TITLE "31:cjc135_5118"
    INDEX 01 11:15:19
  TRACK 519 AUDIO
    TITLE "0:"
    INDEX 01 11:17:26
  TRACK 520 AUDIO
    TITLE "32:cjc135_5119"
    INDEX 01 11:17:50
  TRACK 521 AUDIO
    TITLE "0:"
    INDEX 01 11:19:56
  TRACK 522 AUDIO
    TITLE "29:cjc135_5120"
    INDEX 01 11:20:54
  TRACK 523 AUDIO
    TITLE "0:"
    INDEX 01 11:22:02
  TRACK 524 AUDIO
    TITLE "30:cjc135_5121"
    INDEX 01 11:22:53
  TRACK 525 AUDIO
    TITLE "0:"
    INDEX 01 11:25:26
  TRACK 526 AUDIO
    TITLE "31:cjc135_5122"
    INDEX 01 11:25:53
  TRACK 527 AUDIO
    TITLE "0:"
    INDEX 01 11:28:44
  TRACK 528 AUDIO
    TITLE "32:cjc135_5123"
    INDEX 01 11:28:69
  TRACK 529 AUDIO
    TITLE "0:"
    INDEX 01 11:31:63
  TRACK 530 AUDIO
    TITLE "29:cjc135_5124"
    INDEX 01 11:32:63
  TRACK 531 AUDIO
    TITLE "0:"
    INDEX 01 11:34:11
  TRACK 532 AUDIO
    TITLE "30:cjc135_5125"
    INDEX 01 11:34:60
  TRACK 533 AUDIO
    TITLE "0:"
    INDEX 01 11:36:53
  TRACK 534 AUDIO
    TITLE "31:cjc135_5126"
    INDEX 01 11:37:05
  TRACK 535 AUDIO
    TITLE "0:"
    INDEX 01 11:39:38
  TRACK 536 AUDIO
    TITLE "32:cjc135_5127"
    INDEX 01 11:39:63
  TRACK 537 AUDIO
    TITLE "0:"
    INDEX 01 11:42:20
  TRACK 538 AUDIO
    TITLE "29:cjc135_5128"
    INDEX 01 11:43:20
  TRACK 539 AUDIO
    TITLE "0:"
    INDEX 01 11:44:25
  TRACK 540 AUDIO
    TITLE "30:cjc135_5129"
    INDEX 01 11:44:74
  TRACK 541 AUDIO
    TITLE "0:"
    INDEX 01 11:46:73
  TRACK 542 AUDIO
    TITLE "31:cjc135_5130"
    INDEX 01 11:47:25
  TRACK 543 AUDIO
    TITLE "0:"
    INDEX 01 11:49:38
  TRACK 544 AUDIO
    TITLE "32:cjc135_5131"
    INDEX 01 11:49:61
  TRACK 545 AUDIO
    TITLE "0:"
    INDEX 01 11:51:74
  TRACK 546 AUDIO
    TITLE "29:cjc135_5132"
    INDEX 01 11:53:00
  TRACK 547 AUDIO
    TITLE "0:"
    INDEX 01 11:54:14
  TRACK 548 AUDIO
    TITLE "30:cjc135_5133"
    INDEX 01 11:54:65
  TRACK 549 AUDIO
    TITLE "0:"
    INDEX 01 11:58:07
  TRACK 550 AUDIO
    TITLE "31:cjc135_5134"
    INDEX 01 11:58:33
  TRACK 551 AUDIO
    TITLE "0:"
    INDEX 01 12:01:14
  TRACK 552 AUDIO
    TITLE "32:cjc135_5135"
    INDEX 01 12:01:37
  TRACK 553 AUDIO
    TITLE "0:"
    INDEX 01 12:04:16
  TRACK 554 AUDIO
    TITLE "29:cjc135_5136"
    INDEX 01 12:05:17
  TRACK 555 AUDIO
    TITLE "0:"
    INDEX 01 12:06:36
  TRACK 556 AUDIO
    TITLE "30:cjc135_5137"
    INDEX 01 12:07:10
  TRACK 557 AUDIO
    TITLE "0:"
    INDEX 01 12:09:05
  TRACK 558 AUDIO
    TITLE "31:cjc135_5138"
    INDEX 01 12:09:33
  TRACK 559 AUDIO
    TITLE "0:"
    INDEX 01 12:11:65
  TRACK 560 AUDIO
    TITLE "32:cjc135_5139"
    INDEX 01 12:12:17
  TRACK 561 AUDIO
    TITLE "0:"
    INDEX 01 12:14:50
  TRACK 562 AUDIO
    TITLE "29:cjc135_5140"
    INDEX 01 12:15:53
  TRACK 563 AUDIO
    TITLE "0:"
    INDEX 01 12:16:68
  TRACK 564 AUDIO
    TITLE "30:cjc135_5141"
    INDEX 01 12:17:44
  TRACK 565 AUDIO
    TITLE "0:"
    INDEX 01 12:19:64
  TRACK 566 AUDIO
    TITLE "31:cjc135_5142"
    INDEX 01 12:20:13
  TRACK 567 AUDIO
    TITLE "0:"
    INDEX 01 12:22:04
  TRACK 568 AUDIO
    TITLE "32:cjc135_5143"
    INDEX 01 12:22:30
  TRACK 569 AUDIO
    TITLE "0:"
    INDEX 01 12:24:23
  TRACK 570 AUDIO
    TITLE "29:cjc135_5144"
    INDEX 01 12:25:22
  TRACK 571 AUDIO
    TITLE "0:"
    INDEX 01 12:26:43
  TRACK 572 AUDIO
    TITLE "30:cjc135_5145"
    INDEX 01 12:27:19
  TRACK 573 AUDIO
    TITLE "0:"
    INDEX 01 12:28:71
  TRACK 574 AUDIO
    TITLE "31:cjc135_5146"
    INDEX 01 12:29:22
  TRACK 575 AUDIO
    TITLE "0:"
    INDEX 01 12:31:23
  TRACK 576 AUDIO
    TITLE "32:cjc135_5147"
    INDEX 01 12:31:48
  TRACK 577 AUDIO
    TITLE "0:"
    INDEX 01 12:33:53
  TRACK 578 AUDIO
    TITLE "29:cjc135_5148"
    INDEX 01 12:34:52
  TRACK 579 AUDIO
    TITLE "0:"
    INDEX 01 12:35:56
  TRACK 580 AUDIO
    TITLE "30:cjc135_5149"
    INDEX 01 12:36:32
  TRACK 581 AUDIO
    TITLE "0:"
    INDEX 01 12:38:40
  TRACK 582 AUDIO
    TITLE "31:cjc135_5150"
    INDEX 01 12:38:68
  TRACK 583 AUDIO
    TITLE "0:"
    INDEX 01 12:40:35
  TRACK 584 AUDIO
    TITLE "32:cjc135_5151"
    INDEX 01 12:40:71
  TRACK 585 AUDIO
    TITLE "0:"
    INDEX 01 12:42:38
  TRACK 586 AUDIO
    TITLE "29:cjc135_5152"
    INDEX 01 12:43:47
  TRACK 587 AUDIO
    TITLE "0:"
    INDEX 01 12:44:59
  TRACK 588 AUDIO
    TITLE "30:cjc135_5153"
    INDEX 01 12:45:40
  TRACK 589 AUDIO
    TITLE "0:"
    INDEX 01 12:48:07
  TRACK 590 AUDIO
    TITLE "31:cjc135_5154"
    INDEX 01 12:48:33
  TRACK 591 AUDIO
    TITLE "0:"
    INDEX 01 12:50:26
  TRACK 592 AUDIO
    TITLE "32:cjc135_5155"
    INDEX 01 12:50:53
  TRACK 593 AUDIO
    TITLE "0:"
    INDEX 01 12:52:48
  TRACK 594 AUDIO
    TITLE "29:cjc135_5156"
    INDEX 01 12:53:48
  TRACK 595 AUDIO
    TITLE "0:"
    INDEX 01 12:54:65
  TRACK 596 AUDIO
    TITLE "30:cjc135_5157"
    INDEX 01 12:55:39
  TRACK 597 AUDIO
    TITLE "0:"
    INDEX 01 12:57:06
  TRACK 598 AUDIO
    TITLE "31:cjc135_5158"
    INDEX 01 12:57:30
  TRACK 599 AUDIO
    TITLE "0:"
    INDEX 01 12:59:23
  TRACK 600 AUDIO
    TITLE "32:cjc135_5159"
    INDEX 01 12:59:46
  TRACK 601 AUDIO
    TITLE "0:"
    INDEX 01 13:01:41
  TRACK 602 AUDIO
    TITLE "29:cjc135_5160"
    INDEX 01 13:02:37
  TRACK 603 AUDIO
    TITLE "0:"
    INDEX 01 13:03:58
  TRACK 604 AUDIO
    TITLE "30:cjc135_5161"
    INDEX 01 13:04:34
  TRACK 605 AUDIO
    TITLE "0:"
    INDEX 01 13:06:41
  TRACK 606 AUDIO
    TITLE "31:cjc135_5162"
    INDEX 01 13:06:64
  TRACK 607 AUDIO
    TITLE "0:"
    INDEX 01 13:08:37
  TRACK 608 AUDIO
    TITLE "32:cjc135_5163"
    INDEX 01 13:08:63
  TRACK 609 AUDIO
    TITLE "0:"
    INDEX 01 13:10:34
  TRACK 610 AUDIO
    TITLE "29:cjc135_5164"
    INDEX 01 13:11:38
  TRACK 611 AUDIO
    TITLE "0:"
    INDEX 01 13:12:47
  TRACK 612 AUDIO
    TITLE "30:cjc135_5165"
    INDEX 01 13:13:19
  TRACK 613 AUDIO
    TITLE "0:"
    INDEX 01 13:15:61
  TRACK 614 AUDIO
    TITLE "31:cjc135_5166"
    INDEX 01 13:16:12
  TRACK 615 AUDIO
    TITLE "0:"
    INDEX 01 13:18:59
  TRACK 616 AUDIO
    TITLE "32:cjc135_5167"
    INDEX 01 13:19:10
  TRACK 617 AUDIO
    TITLE "0:"
    INDEX 01 13:21:56
  TRACK 618 AUDIO
    TITLE "29:cjc135_5168"
    INDEX 01 13:22:57
  TRACK 619 AUDIO
    TITLE "0:"
    INDEX 01 13:23:68
  TRACK 620 AUDIO
    TITLE "30:cjc135_5169"
    INDEX 01 13:24:42
  TRACK 621 AUDIO
    TITLE "0:"
    INDEX 01 13:26:33
  TRACK 622 AUDIO
    TITLE "31:cjc135_5170"
    INDEX 01 13:26:61
  TRACK 623 AUDIO
    TITLE "0:"
    INDEX 01 13:28:28
  TRACK 624 AUDIO
    TITLE "32:cjc135_5171"
    INDEX 01 13:28:52
  TRACK 625 AUDIO
    TITLE "0:"
    INDEX 01 13:30:21
  TRACK 626 AUDIO
    TITLE "29:cjc135_5172"
    INDEX 01 13:31:19
  TRACK 627 AUDIO
    TITLE "0:"
    INDEX 01 13:32:20
  TRACK 628 AUDIO
    TITLE "30:cjc135_5173"
    INDEX 01 13:32:69
  TRACK 629 AUDIO
    TITLE "0:"
    INDEX 01 13:34:68
  TRACK 630 AUDIO
    TITLE "31:cjc135_5174"
    INDEX 01 13:35:17
  TRACK 631 AUDIO
    TITLE "0:"
    INDEX 01 13:37:14
  TRACK 632 AUDIO
    TITLE "32:cjc135_5175"
    INDEX 01 13:37:37
  TRACK 633 AUDIO
    TITLE "0:"
    INDEX 01 13:39:32
  TRACK 634 AUDIO
    TITLE "29:cjc135_5176"
    INDEX 01 13:40:32
  TRACK 635 AUDIO
    TITLE "0:"
    INDEX 01 13:41:31
  TRACK 636 AUDIO
    TITLE "30:cjc135_5177"
    INDEX 01 13:42:07
  TRACK 637 AUDIO
    TITLE "0:"
    INDEX 01 13:43:51
  TRACK 638 AUDIO
    TITLE "31:cjc135_5178"
    INDEX 01 13:44:02
  TRACK 639 AUDIO
    TITLE "0:"
    INDEX 01 13:45:41
  TRACK 640 AUDIO
    TITLE "32:cjc135_5179"
    INDEX 01 13:45:64
  TRACK 641 AUDIO
    TITLE "0:"
    INDEX 01 13:47:26
  TRACK 642 AUDIO
    TITLE "29:cjc135_5180"
    INDEX 01 13:48:27
  TRACK 643 AUDIO
    TITLE "0:"
    INDEX 01 13:49:40
  TRACK 644 AUDIO
    TITLE "30:cjc135_5181"
    INDEX 01 13:50:14
  TRACK 645 AUDIO
    TITLE "0:"
    INDEX 01 13:52:31
  TRACK 646 AUDIO
    TITLE "31:cjc135_5182"
    INDEX 01 13:52:56
  TRACK 647 AUDIO
    TITLE "0:"
    INDEX 01 13:55:04
  TRACK 648 AUDIO
    TITLE "32:cjc135_5183"
    INDEX 01 13:55:29
  TRACK 649 AUDIO
    TITLE "0:"
    INDEX 01 13:57:52
  TRACK 650 AUDIO
    TITLE "29:cjc135_5184"
    INDEX 01 13:58:53
  TRACK 651 AUDIO
    TITLE "0:"
    INDEX 01 13:59:74
  TRACK 652 AUDIO
    TITLE "30:cjc135_5185"
    INDEX 01 14:00:50
  TRACK 653 AUDIO
    TITLE "0:"
    INDEX 01 14:04:05
  TRACK 654 AUDIO
    TITLE "31:cjc135_5186"
    INDEX 01 14:04:30
  TRACK 655 AUDIO
    TITLE "0:"
    INDEX 01 14:07:07
  TRACK 656 AUDIO
    TITLE "32:cjc135_5187"
    INDEX 01 14:07:34
  TRACK 657 AUDIO
    TITLE "0:"
    INDEX 01 14:10:13
  TRACK 658 AUDIO
    TITLE "29:cjc135_5188"
    INDEX 01 14:11:15
  TRACK 659 AUDIO
    TITLE "0:"
    INDEX 01 14:12:59
  TRACK 660 AUDIO
    TITLE "30:cjc135_5189"
    INDEX 01 14:13:35
  TRACK 661 AUDIO
    TITLE "0:"
    INDEX 01 14:14:42
  TRACK 662 AUDIO
    TITLE "31:cjc135_5190"
    INDEX 01 14:14:66
  TRACK 663 AUDIO
    TITLE "0:"
    INDEX 01 14:16:74
  TRACK 664 AUDIO
    TITLE "32:cjc135_5191"
    INDEX 01 14:17:23
  TRACK 665 AUDIO
    TITLE "0:"
    INDEX 01 14:19:32
  TRACK 666 AUDIO
    TITLE "29:cjc135_5192"
    INDEX 01 14:20:29
  TRACK 667 AUDIO
    TITLE "0:"
    INDEX 01 14:21:44
  TRACK 668 AUDIO
    TITLE "30:cjc135_5193"
    INDEX 01 14:22:20
  TRACK 669 AUDIO
    TITLE "0:"
    INDEX 01 14:24:25
  TRACK 670 AUDIO
    TITLE "31:cjc135_5194"
    INDEX 01 14:24:52
  TRACK 671 AUDIO
    TITLE "0:"
    INDEX 01 14:26:38
  TRACK 672 AUDIO
    TITLE "32:cjc135_5195"
    INDEX 01 14:26:63
  TRACK 673 AUDIO
    TITLE "0:"
    INDEX 01 14:28:48
  TRACK 674 AUDIO
    TITLE "29:cjc135_5196"
    INDEX 01 14:29:48
  TRACK 675 AUDIO
    TITLE "0:"
    INDEX 01 14:30:53
  TRACK 676 AUDIO
    TITLE "30:cjc135_5197"
    INDEX 01 14:31:27
  TRACK 677 AUDIO
    TITLE "0:"
    INDEX 01 14:33:55
  TRACK 678 AUDIO
    TITLE "31:cjc135_5198"
    INDEX 01 14:34:04
  TRACK 679 AUDIO
    TITLE "0:"
    INDEX 01 14:36:38
  TRACK 680 AUDIO
    TITLE "32:cjc135_5199"
    INDEX 01 14:36:61
  TRACK 681 AUDIO
    TITLE "0:"
    INDEX 01 14:39:19
  TRACK 682 AUDIO
    TITLE "29:cjc135_5200"
    INDEX 01 14:40:20
  TRACK 683 AUDIO
    TITLE "0:"
    INDEX 01 14:41:59
  TRACK 684 AUDIO
    TITLE "30:cjc135_5201"
    INDEX 01 14:42:35
  TRACK 685 AUDIO
    TITLE "0:"
    INDEX 01 14:44:14
  TRACK 686 AUDIO
    TITLE "31:cjc135_5202"
    INDEX 01 14:44:41
  TRACK 687 AUDIO
    TITLE "0:"
    INDEX 01 14:47:04
  TRACK 688 AUDIO
    TITLE "32:cjc135_5203"
    INDEX 01 14:47:32
  TRACK 689 AUDIO
    TITLE "0:"
    INDEX 01 14:49:68
  TRACK 690 AUDIO
    TITLE "29:cjc135_5204"
    INDEX 01 14:50:71
  TRACK 691 AUDIO
    TITLE "0:"
    INDEX 01 14:52:17
  TRACK 692 AUDIO
    TITLE "30:cjc135_5205"
    INDEX 01 14:52:64
  TRACK 693 AUDIO
    TITLE "0:"
    INDEX 01 14:55:10
  TRACK 694 AUDIO
    TITLE "31:cjc135_5206"
    INDEX 01 14:55:37
  TRACK 695 AUDIO
    TITLE "0:"
    INDEX 01 14:57:62
  TRACK 696 AUDIO
    TITLE "32:cjc135_5207"
    INDEX 01 14:58:12
  TRACK 697 AUDIO
    TITLE "0:"
    INDEX 01 15:00:36
  TRACK 698 AUDIO
    TITLE "29:cjc135_5208"
    INDEX 01 15:01:38
  TRACK 699 AUDIO
    TITLE "0:"
    INDEX 01 15:02:49
  TRACK 700 AUDIO
    TITLE "30:cjc135_5209"
    INDEX 01 15:03:27
  TRACK 701 AUDIO
    TITLE "0:"
    INDEX 01 15:05:28
  TRACK 702 AUDIO
    TITLE "31:cjc135_5210"
    INDEX 01 15:05:63
  TRACK 703 AUDIO
    TITLE "0:"
    INDEX 01 15:07:35
  TRACK 704 AUDIO
    TITLE "32:cjc135_5211"
    INDEX 01 15:07:66
  TRACK 705 AUDIO
    TITLE "0:"
    INDEX 01 15:09:37
  TRACK 706 AUDIO
    TITLE "29:cjc135_5212"
    INDEX 01 15:10:35
  TRACK 707 AUDIO
    TITLE "0:"
    INDEX 01 15:11:50
  TRACK 708 AUDIO
    TITLE "30:cjc135_5213"
    INDEX 01 15:12:24
  TRACK 709 AUDIO
    TITLE "0:"
    INDEX 01 15:15:11
  TRACK 710 AUDIO
    TITLE "31:cjc135_5214"
    INDEX 01 15:15:38
  TRACK 711 AUDIO
    TITLE "0:"
    INDEX 01 15:18:11
  TRACK 712 AUDIO
    TITLE "32:cjc135_5215"
    INDEX 01 15:18:40
  TRACK 713 AUDIO
    TITLE "0:"
    INDEX 01 15:21:15
  TRACK 714 AUDIO
    TITLE "29:cjc135_5216"
    INDEX 01 15:22:17
  TRACK 715 AUDIO
    TITLE "0:"
    INDEX 01 15:23:14
  TRACK 716 AUDIO
    TITLE "30:cjc135_5217"
    INDEX 01 15:23:65
  TRACK 717 AUDIO
    TITLE "0:"
    INDEX 01 15:25:56
  TRACK 718 AUDIO
    TITLE "31:cjc135_5218"
    INDEX 01 15:26:05
  TRACK 719 AUDIO
    TITLE "0:"
    INDEX 01 15:27:65
  TRACK 720 AUDIO
    TITLE "32:cjc135_5219"
    INDEX 01 15:28:15
  TRACK 721 AUDIO
    TITLE "0:"
    INDEX 01 15:30:00
  TRACK 722 AUDIO
    TITLE "29:cjc135_5220"
    INDEX 01 15:31:00
  TRACK 723 AUDIO
    TITLE "0:"
    INDEX 01 15:32:11
  TRACK 724 AUDIO
    TITLE "30:cjc135_5221"
    INDEX 01 15:32:62
  TRACK 725 AUDIO
    TITLE "0:"
    INDEX 01 15:34:33
  TRACK 726 AUDIO
    TITLE "31:cjc135_5222"
    INDEX 01 15:34:57
  TRACK 727 AUDIO
    TITLE "0:"
    INDEX 01 15:36:07
  TRACK 728 AUDIO
    TITLE "32:cjc135_5223"
    INDEX 01 15:36:36
  TRACK 729 AUDIO
    TITLE "0:"
    INDEX 01 15:37:65
  TRACK 730 AUDIO
    TITLE "29:cjc135_5224"
    INDEX 01 15:38:66
  TRACK 731 AUDIO
    TITLE "0:"
    INDEX 01 15:39:74
  TRACK 732 AUDIO
    TITLE "30:cjc135_5225"
    INDEX 01 15:40:58
  TRACK 733 AUDIO
    TITLE "0:"
    INDEX 01 15:43:19
  TRACK 734 AUDIO
    TITLE "31:cjc135_5226"
    INDEX 01 15:43:44
  TRACK 735 AUDIO
    TITLE "0:"
    INDEX 01 15:46:03
  TRACK 736 AUDIO
    TITLE "32:cjc135_5227"
    INDEX 01 15:46:27
  TRACK 737 AUDIO
    TITLE "0:"
    INDEX 01 15:48:59
  TRACK 738 AUDIO
    TITLE "29:cjc135_5228"
    INDEX 01 15:49:58
  TRACK 739 AUDIO
    TITLE "0:"
    INDEX 01 15:50:62
  TRACK 740 AUDIO
    TITLE "30:cjc135_5229"
    INDEX 01 15:51:38
  TRACK 741 AUDIO
    TITLE "0:"
    INDEX 01 15:53:68
  TRACK 742 AUDIO
    TITLE "31:cjc135_5230"
    INDEX 01 15:54:20
  TRACK 743 AUDIO
    TITLE "0:"
    INDEX 01 15:56:23
  TRACK 744 AUDIO
    TITLE "32:cjc135_5231"
    INDEX 01 15:56:49
  TRACK 745 AUDIO
    TITLE "0:"
    INDEX 01 15:58:50
  TRACK 746 AUDIO
    TITLE "29:cjc135_5232"
    INDEX 01 15:59:49
  TRACK 747 AUDIO
    TITLE "0:"
    INDEX 01 16:00:74
  TRACK 748 AUDIO
    TITLE "30:cjc135_5233"
    INDEX 01 16:01:50
  TRACK 749 AUDIO
    TITLE "0:"
    INDEX 01 16:04:25
  TRACK 750 AUDIO
    TITLE "31:cjc135_5234"
    INDEX 01 16:04:50
  TRACK 751 AUDIO
    TITLE "0:"
    INDEX 01 16:07:15
  TRACK 752 AUDIO
    TITLE "32:cjc135_5235"
    INDEX 01 16:07:39
  TRACK 753 AUDIO
    TITLE "0:"
    INDEX 01 16:10:04
  TRACK 754 AUDIO
    TITLE "29:cjc135_5236"
    INDEX 01 16:11:03
  TRACK 755 AUDIO
    TITLE "0:"
    INDEX 01 16:12:18
  TRACK 756 AUDIO
    TITLE "30:cjc135_5237"
    INDEX 01 16:12:67
  TRACK 757 AUDIO
    TITLE "0:"
    INDEX 01 16:15:27
  TRACK 758 AUDIO
    TITLE "31:cjc135_5238"
    INDEX 01 16:15:52
  TRACK 759 AUDIO
    TITLE "0:"
    INDEX 01 16:17:65
  TRACK 760 AUDIO
    TITLE "32:cjc135_5239"
    INDEX 01 16:18:17
  TRACK 761 AUDIO
    TITLE "0:"
    INDEX 01 16:20:28
  TRACK 762 AUDIO
    TITLE "29:cjc135_5240"
    INDEX 01 16:21:31
  TRACK 763 AUDIO
    TITLE "0:"
    INDEX 01 16:22:48
  TRACK 764 AUDIO
    TITLE "30:cjc135_5241"
    INDEX 01 16:23:22
  TRACK 765 AUDIO
    TITLE "0:"
    INDEX 01 16:25:52
  TRACK 766 AUDIO
    TITLE "31:cjc135_5242"
    INDEX 01 16:26:03
  TRACK 767 AUDIO
    TITLE "0:"
    INDEX 01 16:28:29
  TRACK 768 AUDIO
    TITLE "32:cjc135_5243"
    INDEX 01 16:28:57
  TRACK 769 AUDIO
    TITLE "0:"
    INDEX 01 16:31:10
  TRACK 770 AUDIO
    TITLE "29:cjc135_5244"
    INDEX 01 16:32:11
  TRACK 771 AUDIO
    TITLE "0:"
    INDEX 01 16:33:34
  TRACK 772 AUDIO
    TITLE "30:cjc135_5245"
    INDEX 01 16:34:12
  TRACK 773 AUDIO
    TITLE "0:"
    INDEX 01 16:36:29
  TRACK 774 AUDIO
    TITLE "31:cjc135_5246"
    INDEX 01 16:36:54
  TRACK 775 AUDIO
    TITLE "0:"
    INDEX 01 16:38:71
  TRACK 776 AUDIO
    TITLE "32:cjc135_5247"
    INDEX 01 16:39:19
  TRACK 777 AUDIO
    TITLE "0:"
    INDEX 01 16:41:34
  TRACK 778 AUDIO
    TITLE "29:cjc135_5248"
    INDEX 01 16:42:41
  TRACK 779 AUDIO
    TITLE "0:"
    INDEX 01 16:43:62
  TRACK 780 AUDIO
    TITLE "30:cjc135_5249"
    INDEX 01 16:44:38
  TRACK 781 AUDIO
    TITLE "0:"
    INDEX 01 16:46:54
  TRACK 782 AUDIO
    TITLE "31:cjc135_5250"
    INDEX 01 16:47:05
  TRACK 783 AUDIO
    TITLE "0:"
    INDEX 01 16:49:20
  TRACK 784 AUDIO
    TITLE "32:cjc135_5251"
    INDEX 01 16:49:45
  TRACK 785 AUDIO
    TITLE "0:"
    INDEX 01 16:51:58
  TRACK 786 AUDIO
    TITLE "29:cjc135_5252"
    INDEX 01 16:52:59
  TRACK 787 AUDIO
    TITLE "0:"
    INDEX 01 16:53:74
  TRACK 788 AUDIO
    TITLE "30:cjc135_5253"
    INDEX 01 16:54:50
  TRACK 789 AUDIO
    TITLE "0:"
    INDEX 01 16:56:47
  TRACK 790 AUDIO
    TITLE "31:cjc135_5254"
    INDEX 01 16:56:71
  TRACK 791 AUDIO
    TITLE "0:"
    INDEX 01 16:58:38
  TRACK 792 AUDIO
    TITLE "32:cjc135_5255"
    INDEX 01 16:58:66
  TRACK 793 AUDIO
    TITLE "0:"
    INDEX 01 17:00:35
  TRACK 794 AUDIO
    TITLE "29:cjc135_5256"
    INDEX 01 17:01:34
  TRACK 795 AUDIO
    TITLE "0:"
    INDEX 01 17:02:32
  TRACK 796 AUDIO
    TITLE "30:cjc135_5257"
    INDEX 01 17:03:08
  TRACK 797 AUDIO
    TITLE "0:"
    INDEX 01 17:04:68
  TRACK 798 AUDIO
    TITLE "31:cjc135_5258"
    INDEX 01 17:05:21
  TRACK 799 AUDIO
    TITLE "0:"
    INDEX 01 17:06:45
  TRACK 800 AUDIO
    TITLE "32:cjc135_5259"
    INDEX 01 17:07:02
  TRACK 801 AUDIO
    TITLE "0:"
    INDEX 01 17:08:29
